<?xml version="1.0" encoding="UTF-8" standalone="no"?>
<!-- Created with Inkscape (http://www.inkscape.org/) -->

<svg
   width="210mm"
   height="297mm"
   viewBox="0 0 210 297"
   version="1.1"
   id="svg1"
   inkscape:version="1.3 (0e150ed6c4, 2023-07-21)"
   sodipodi:docname="Schriftzug.svg"
   xmlns:inkscape="http://www.inkscape.org/namespaces/inkscape"
   xmlns:sodipodi="http://sodipodi.sourceforge.net/DTD/sodipodi-0.dtd"
   xmlns="http://www.w3.org/2000/svg"
   xmlns:svg="http://www.w3.org/2000/svg">
  <sodipodi:namedview
     id="namedview1"
     pagecolor="#ffffff"
     bordercolor="#000000"
     borderopacity="0.25"
     inkscape:showpageshadow="2"
     inkscape:pageopacity="0.0"
     inkscape:pagecheckerboard="0"
     inkscape:deskcolor="#d1d1d1"
     inkscape:document-units="mm"
     inkscape:zoom="1.3316682"
     inkscape:cx="241.05104"
     inkscape:cy="257.57167"
     inkscape:window-width="2160"
     inkscape:window-height="1334"
     inkscape:window-x="-11"
     inkscape:window-y="-11"
     inkscape:window-maximized="1"
     inkscape:current-layer="layer1" />
  <defs
     id="defs1">
    <rect
       x="161.42194"
       y="303.72813"
       width="560.72885"
       height="210.27332"
       id="rect1" />
  </defs>
  <g
     inkscape:label="Ebene 1"
     inkscape:groupmode="layer"
     id="layer1">
    <text
       xml:space="preserve"
       transform="scale(0.26458333)"
       id="text1"
       style="font-style:normal;font-variant:normal;font-weight:normal;font-stretch:normal;font-size:53.3333px;font-family:'Funky Olive';-inkscape-font-specification:'Funky Olive';white-space:pre;shape-inside:url(#rect1);fill:#005c98;stroke:#005c98;stroke-width:13.6819;stroke-linecap:round;stroke-linejoin:bevel;stroke-miterlimit:4.8;paint-order:fill markers stroke"><tspan
         x="161.42188"
         y="350.39515"
         id="tspan2">&#10;</tspan><tspan
         x="161.42188"
         y="417.06178"
         id="tspan3">&#10;</tspan></text>
    <path
       style="font-weight:500;font-size:17.5821px;font-family:'Funky Olive';-inkscape-font-specification:'Funky Olive Medium';fill:#72ec9d;stroke-width:4.51045;stroke-linecap:round;stroke-linejoin:bevel;stroke-miterlimit:4.8;paint-order:fill markers stroke"
       d="m 58.170917,82.081923 h 1.090091 V 95.268498 H 71.67397 V 90.714734 H 65.959788 V 82.046759 H 59.27859 v -1.09009 l 7.472392,0.263731 v 1.037344 l -0.281313,7.929527 0.07033,0.03517 5.415287,0.210985 v 0.791194 l -0.158239,4.166958 -12.149231,0.439552 h -0.984598 z m 2.145017,1.054926 4.782331,-0.175821 0.316478,8.316334 5.942749,-0.228568 0.175821,4.061465 -11.656932,-0.439552 z m 14.118434,3.059286 h 1.142837 l 2.707643,-0.175821 q 0.158239,-0.03516 0.298896,-0.07033 0.158239,-0.05275 0.298895,-0.05275 h 0.01758 l 0.05275,0.281314 0.580209,9.845976 -5.626272,-0.33406 z m -1.916449,-4.219704 q 0,-0.01758 0,-0.105493 0.01758,-0.105493 0.03516,-0.210985 0.03516,-0.123075 0.05275,-0.210985 0.03516,-0.105493 0.07033,-0.105493 h 0.879105 v -0.75603 h 0.03516 q 0.01758,0 0.01758,0 0,-0.01758 0.01758,-0.01758 0.05275,0 0.08791,-0.01758 0.03516,0 0.07033,-0.01758 h 0.562628 l 4.69442,0.562628 q 0.351642,0.03516 0.509881,0.281313 0.175821,0.228568 0.175821,0.562627 v 0.175821 l -0.175821,1.6703 q -0.01758,0.193403 -0.210985,0.316478 -0.175821,0.105492 -0.351642,0.123074 l -4.202122,0.527463 q -0.140657,0.01758 -0.351642,0.01758 -0.210985,0 -0.386806,0 -0.404388,0 -0.826359,-0.193404 -0.404388,-0.210985 -0.474716,-0.685701 l -0.228568,-1.775793 z m 1.318658,1.969195 q 0.03516,0.03516 0.105492,0.03516 0.03516,0.01758 0.05275,0.01758 h 5.063644 q 0.123075,0 0.24615,-0.08791 0.140657,-0.105493 0.140657,-0.24615 v -1.810956 q 0,-0.140657 -0.158239,-0.228567 -0.140657,-0.105493 -0.24615,-0.105493 h -4.993316 q -0.158239,0 -0.298896,0.123075 -0.140657,0.105492 -0.140657,0.263731 v 1.705464 q 0,0.08791 0.07033,0.193403 0.07033,0.105493 0.158239,0.140657 z m 0.66812,-0.843941 q 0,-0.07033 0.03516,-0.140657 0.05275,-0.08791 0.07033,-0.175821 0,-0.01758 0.01758,-0.08791 0.01758,-0.07033 0.01758,-0.08791 v -0.08791 q 0,-0.03516 0.01758,-0.05275 l 0.03516,-0.01758 3.60433,-0.439552 q 0.140657,-0.03516 0.228567,-0.03516 0.105493,-0.01758 0.24615,-0.01758 h 0.175821 q 0.07033,0.01758 0.105492,0.07033 0.03517,0.05275 0.05275,0.08791 0.08791,0.298896 0.123074,0.650538 0.05275,0.33406 0.05275,0.632956 0,0.193403 -0.123075,0.281313 -0.105493,0.08791 -0.281314,0.08791 h -0.08791 l -3.973555,-0.492299 q -0.08791,0 -0.210985,-0.03516 -0.105492,-0.05275 -0.105492,-0.140657 z m 17.318353,6.329556 q -0.08791,-0.879105 -0.615374,-1.230747 -0.527463,-0.369224 -1.353822,-0.369224 -0.84394,0 -1.441732,0.42197 -0.597791,0.421971 -0.615373,1.318658 l -0.158239,4.993316 -4.835078,-0.140657 0.263732,-9.336095 3.586748,-0.123074 h 0.158239 l 0.01758,0.05275 q 0,0.03516 0.01758,0.158239 0.01758,0.123075 0.01758,0.158239 l 0.105493,3.586748 1.670299,-2.373583 q 0.140657,-0.193403 0.369225,-0.421971 0.228567,-0.228567 0.386806,-0.386806 0.369224,-0.351642 0.826358,-0.580209 0.457135,-0.228568 0.949434,-0.351642 0.492299,-0.140657 1.00218,-0.175821 0.527463,-0.05275 1.019761,-0.05275 0.650538,0 1.265912,0.08791 0.632955,0.08791 1.160418,0.33406 0.527463,0.246149 0.914269,0.685702 0.404389,0.439552 0.597792,1.142836 0.05275,0.24615 0.08791,0.492299 0.05275,0.228567 0.05275,0.457135 l 0.210985,7.085586 -0.158239,0.03516 q -0.01758,0 -0.527463,0.01758 -0.492299,0.01758 -1.178001,0.03516 -0.685702,0.01758 -1.42415,0.05275 -0.720866,0.01758 -1.178001,0.01758 -0.07033,0 -0.263731,0.01758 -0.175821,0 -0.386806,0 -0.210986,0 -0.404389,0.01758 -0.175821,0 -0.246149,0 0,-1.265911 0.05275,-2.479076 0.05275,-1.213165 0.05275,-2.443912 z m -9.828394,-5.397705 v 11.147052 h 6.259227 v -5.643854 q 0,-0.351642 0.140657,-0.597792 0.158239,-0.263731 0.386806,-0.42197 0.24615,-0.158239 0.527463,-0.228567 0.298896,-0.07033 0.597792,-0.07033 0.562627,0 0.949433,0.210985 0.404388,0.193403 0.580209,0.756031 0,0.01758 0,0.05275 0.01758,0.01758 0.01758,0.05275 0.01758,0.03516 0.01758,0.105493 0.01758,0.05275 0.03516,0.105492 l 0.03516,0.140657 v 5.538362 h 6.259228 v -7.507557 q 0,-0.246149 -0.05275,-0.562627 -0.05275,-0.316478 -0.140657,-0.562627 -0.228567,-0.826359 -0.720866,-1.33624 -0.492298,-0.527463 -1.142836,-0.826359 -0.632956,-0.298895 -1.406568,-0.404388 -0.75603,-0.123075 -1.529643,-0.123075 -0.861523,0 -1.687881,0.158239 -0.808777,0.158239 -1.564807,0.58021 -0.24615,0.140656 -0.439553,0.298895 -0.175821,0.158239 -0.42197,0.298896 v -0.984598 l 0.05275,-0.05275 q 0.105493,-0.03516 0.175821,-0.08791 0.07033,-0.03517 0.140657,-0.07033 0.07033,-0.05275 0.123075,-0.08791 0.791194,-0.439553 1.635135,-0.597792 0.843941,-0.158239 1.723046,-0.158239 1.213165,0 2.250508,0.24615 1.054926,0.228567 1.828539,0.773612 0.791194,0.545045 1.230747,1.459314 0.439552,0.896688 0.439552,2.232927 v 0.298896 l -0.210985,7.331736 -6.663616,-0.193404 -0.193403,-5.555943 Q 91.207676,89.132345 90.90878,88.868614 90.627467,88.5873 90.047257,88.5873 q -0.615373,0 -0.984597,0.228568 -0.369224,0.210985 -0.369224,0.861522 v 0.228568 l 0.123074,4.712003 v 1.178 L 82.381462,95.9542 h -1.160419 l -0.33406,-11.920664 z m 17.423873,6.522959 q 0,-0.949433 0.158239,-1.775792 0.175821,-0.826358 0.580212,-1.476896 0.40439,-0.650538 1.07251,-1.107672 0.6857,-0.474717 1.70546,-0.703284 0.0528,-0.01758 0.14066,-0.03517 0.10549,-0.01758 0.21098,-0.03516 0.12308,-0.01758 0.21099,-0.03516 0.10549,-0.01758 0.14065,-0.01758 0.0879,-0.01758 0.24615,-0.03516 0.17582,-0.01758 0.35164,-0.03516 0.17583,-0.01758 0.2989,-0.01758 0.14066,-0.01758 0.17582,-0.01758 h 3.88564 q 0.0176,0 0.14066,0.01758 0.12308,0 0.26373,0.01758 0.15824,0 0.2989,0.01758 0.14066,0.01758 0.21098,0.01758 2.33842,0.298895 3.35819,1.582389 1.03734,1.283493 1.03734,3.621912 0,2.127434 -1.01976,3.375764 -1.00218,1.230747 -3.18236,1.687881 -0.75603,0.158239 -1.51206,0.24615 -0.73845,0.08791 -1.52965,0.08791 h -0.43955 q -1.38898,-0.105493 -2.63731,-0.351642 -1.23075,-0.246149 -2.1626,-0.826359 -0.91427,-0.580209 -1.459316,-1.582389 -0.545045,-1.002179 -0.545045,-2.619733 z m 4.571341,0.421971 q 0,0.967015 0.47472,1.670299 0.4923,0.685702 1.44173,0.967016 0.19341,0.05275 0.36923,0.08791 0.1934,0.03516 0.40439,0.03516 0.24615,0 0.49229,-0.05275 0.24615,-0.07033 0.4923,-0.158239 0.87911,-0.298895 1.26591,-0.984597 0.38681,-0.703284 0.38681,-1.599971 0,-0.492299 -0.10549,-1.019762 -0.0879,-0.545045 -0.31648,-0.984598 -0.22857,-0.439552 -0.61537,-0.738448 -0.38681,-0.298896 -0.96702,-0.351642 h -0.59779 q -0.2989,0 -0.58021,0 -0.26373,-0.01758 -0.54504,0.07033 -0.47472,0.140657 -0.7912,0.474717 -0.31648,0.316478 -0.4923,0.75603 -0.17582,0.421971 -0.24615,0.91427 -0.0703,0.474716 -0.0703,0.914269 z m 0.68571,-0.650538 q 0,-1.054926 0.42197,-1.670299 0.42197,-0.632956 1.5648,-0.632956 0.56263,0 0.93186,0.175821 0.3868,0.158239 0.61537,0.474717 0.24615,0.298895 0.33406,0.720866 0.10549,0.42197 0.10549,0.931851 0,1.107672 -0.42197,1.705464 -0.42197,0.597791 -1.56481,0.597791 -1.14283,0 -1.5648,-0.597791 -0.42197,-0.615374 -0.42197,-1.705464 z m 0.52746,-0.527463 q 0,0.08791 0.0176,0.33406 0.0352,0.228567 0.0703,0.316478 0.0352,0.246149 0.12307,0.562627 0.1055,0.316478 0.33406,0.474717 0.1055,0.08791 0.21099,0.105492 0.10549,0 0.22857,0 0.12307,0 0.22856,-0.01758 0.12308,-0.01758 0.24615,-0.01758 0.12308,0 0.22857,0.01758 0.10549,0.01758 0.22857,0.01758 0.33406,0 0.52746,-0.193403 0.1934,-0.210985 0.28132,-0.492299 0.10549,-0.298895 0.12307,-0.615373 0.0352,-0.316478 0.0352,-0.562627 0,-0.562627 -0.1934,-0.914269 -0.17582,-0.369225 -0.73845,-0.562628 -0.12307,-0.03516 -0.26373,-0.07033 -0.12307,-0.03516 -0.26373,-0.03516 -0.0879,0 -0.17582,0.03516 -0.0879,0.01758 -0.21099,0.05275 -0.54504,0.158239 -0.79119,0.527463 -0.24615,0.369224 -0.24615,0.914269 z m 9.96904,-6.593287 3.95597,-0.175821 q 0.0352,0 0.19341,-0.01758 0.17582,-0.03516 0.21098,-0.03516 h 0.0352 l 0.0527,0.281314 0.59779,12.553619 -5.64385,-0.298895 z m 5.87243,6.78669 q 0.12308,-1.213165 0.50989,-2.039523 0.3868,-0.843941 1.03734,-1.371404 0.66812,-0.527463 1.59997,-0.75603 0.93185,-0.228568 2.12743,-0.228568 0.40439,0 0.82636,0.05275 0.43956,0.03516 0.86153,0.140656 0.42197,0.105493 0.79119,0.298896 0.38681,0.175821 0.70328,0.457135 l 0.4923,0.492298 0.12308,0.158239 q 0.0352,0.01758 0.0527,0.01758 0.19341,0 0.33406,-0.08791 v -0.08791 q 0,-0.386806 -0.0176,-0.773612 0,-0.404388 0,-0.808777 v -0.580209 q 0,-0.105492 0,-0.369224 0.0176,-0.281314 0.0176,-0.562627 0.0176,-0.298896 0.0352,-0.562627 0.0176,-0.263732 0.0176,-0.369224 h 0.0352 l 5.38013,0.175821 -0.40439,12.237141 q 0,0.01758 -0.0176,0.105493 0,0.07033 0,0.08791 -0.0176,0.03516 -0.0176,0.03516 v 0.01758 h -0.14065 l -4.00872,-0.123075 v -0.316478 h -1.10767 l -0.93185,-0.457135 q -0.0528,0 -0.12308,0.123075 -0.0528,0.105493 -0.0879,0.140657 -0.2989,0.33406 -0.6857,0.527463 -0.38681,0.175821 -0.82636,0.281314 -0.42197,0.08791 -0.87911,0.123074 -0.43955,0.01758 -0.84394,0.01758 -1.35382,0 -2.28567,-0.33406 -0.91427,-0.351642 -1.49448,-1.019761 -0.56262,-0.66812 -0.82636,-1.652718 -0.24615,-0.984597 -0.24615,-2.285673 z m 4.34278,1.582389 q 0,0.228568 0.0352,0.474717 0.0527,0.228567 0.14065,0.474717 0.24615,0.84394 0.89669,1.353821 0.66812,0.509881 1.56481,0.509881 0.54504,0 1.03734,-0.123074 0.4923,-0.140657 0.84394,-0.421971 0.36923,-0.281313 0.58021,-0.703284 0.21099,-0.439552 0.21099,-1.037344 0,-0.369224 0,-0.720866 0,-0.369224 -0.0352,-0.720866 0,-0.01758 -0.0176,-0.158239 0,-0.140657 -0.0352,-0.210985 -0.0879,-0.457135 -0.35165,-0.773612 -0.24614,-0.316478 -0.59779,-0.509881 -0.35164,-0.210986 -0.77361,-0.298896 -0.42197,-0.08791 -0.82636,-0.08791 -0.9846,0 -1.63513,0.545046 -0.63296,0.527463 -0.87911,1.476896 -0.0703,0.228567 -0.12307,0.457135 -0.0352,0.210985 -0.0352,0.474716 z m 1.10768,-0.03516 q 0,-0.527463 0.0879,-0.949433 0.10549,-0.421971 0.33406,-0.703284 0.24614,-0.298896 0.63295,-0.457135 0.38681,-0.158239 0.94943,-0.158239 1.09009,0 1.52965,0.615374 0.45713,0.597791 0.45713,1.635135 0,1.037344 -0.45713,1.617553 -0.43956,0.580209 -1.52965,0.580209 -0.86152,0 -1.38898,-0.404388 -0.52746,-0.42197 -0.61537,-1.301075 z m 1.03734,0.861523 q 0.0528,0.228567 0.1934,0.386806 0.15824,0.140657 0.35164,0.228567 0.21099,0.07033 0.43956,0.105493 0.22856,0.01758 0.43955,0.01758 0.33406,0 0.59779,-0.140657 0.26373,-0.158239 0.43955,-0.386806 0.17582,-0.246149 0.26373,-0.545045 0.0879,-0.316478 0.0879,-0.632956 0,-0.158238 -0.0352,-0.298895 -0.0352,-0.158239 -0.0879,-0.298896 -0.17582,-0.474717 -0.47472,-0.738448 -0.29889,-0.263732 -0.80877,-0.263732 -0.61538,0 -1.01976,0.228568 -0.40439,0.210985 -0.40439,0.861523 v 0.01758 q 0,0.01758 0,0.105492 0.0176,0.07033 0.0176,0.175821 0.0176,0.08791 0.0176,0.175821 0.0176,0.07033 0.0176,0.08791 v 0.05275 q 0,0.140657 -0.0176,0.281314 -0.0176,0.123074 -0.0176,0.263731 z m 9.75805,2.813136 0.45714,-11.428365 h 0.10549 q 0.61538,0 1.21317,0.03516 0.61537,0.03516 1.23074,0.03516 h 0.28132 l 3.28785,-0.123074 h 0.0703 v 0.08791 q 0,0.03516 0,0.07033 0.0176,0.03516 0.0176,0.07033 0,0.01758 0,0.123075 0.0176,0.08791 0.0176,0.193403 0,0.105492 0,0.210985 0.0176,0.08791 0.0176,0.105493 0,0.01758 0,0.07033 0.0176,0.05275 0.0176,0.07033 0.33406,-0.492298 0.72086,-0.791194 0.38681,-0.316478 0.82636,-0.474717 0.45714,-0.175821 0.96702,-0.228567 0.50988,-0.05275 1.09009,-0.05275 h 0.12307 l 1.65272,0.140656 0.28131,7.665796 -3.79773,0.369224 h -0.10549 q -0.0176,-0.03516 -0.0176,-0.08791 v -0.123075 q 0,-0.05275 -0.0176,-0.158239 0,-0.123075 -0.0176,-0.246149 0,-0.140657 -0.0176,-0.24615 0,-0.123075 0,-0.175821 h -0.0352 l -0.0352,0.05275 -1.3714,1.687882 h 1.0725 l -0.12307,4.079047 -7.91195,-0.263731 z m 0.70329,-0.05275 h 6.22406 v -3.076868 h -1.09009 v 0.05275 q 0,0.105493 0.0176,0.369225 0.0176,0.263731 0.0176,0.562627 0.0176,0.281313 0.0352,0.545045 0.0176,0.246149 0.0176,0.351642 0.0176,0.08791 0.0176,0.210985 0,0.05275 -0.0527,0.05275 -0.0176,0 -0.12308,0.01758 -0.0879,0.01758 -0.12307,0.01758 l -4.27245,0.175821 -0.43955,-10.109708 v -0.07033 q 0.0703,-0.01758 0.28131,-0.01758 0.21098,-0.01758 0.42197,-0.03517 0.22857,-0.01758 0.42197,-0.01758 0.21099,-0.01758 0.2989,-0.01758 h 1.14283 q 0.14066,0.01758 0.50988,0.03516 0.36923,0.01758 0.77362,0.03517 0.42197,0.01758 0.79119,0.03516 0.36922,0.01758 0.50988,0.01758 v 0.439552 l -0.24615,6.136153 1.26591,-4.553764 q 0,0 0.0176,-0.07033 0.0352,-0.07033 0.0703,-0.140657 0.0352,-0.08791 0.0703,-0.158239 0.0352,-0.08791 0.0528,-0.140657 0.33406,-0.773612 0.84394,-1.037343 0.50988,-0.281314 1.30107,-0.281314 0.1055,0 0.28132,0 0.17582,0 0.35164,0.01758 0.1934,0 0.35164,0.03516 0.15824,0.01758 0.22857,0.07033 v 0.08791 q 0,0.08791 0,0.158239 0,0.05275 -0.0176,0.175821 l -0.17582,4.061465 -0.0352,0.07033 H 146.099 q -0.0528,0 -0.22857,0.01758 -0.17582,0 -0.22857,0 v 0.316477 q 0,0.05275 0,0.158239 0.0176,0.105493 0.0176,0.228568 0.0176,0.123074 0.0176,0.246149 0.0176,0.105493 0.0176,0.140657 h 0.10549 l 2.90105,-0.175821 v -6.153735 q -0.0703,-0.01758 -0.24615,-0.03516 -0.17582,-0.01758 -0.36923,-0.03516 -0.17582,-0.01758 -0.35164,-0.01758 -0.15824,-0.01758 -0.22857,-0.01758 h -0.3868 q -0.59779,0 -1.07251,0.105493 -0.47472,0.08791 -0.86152,0.316478 -0.36923,0.228567 -0.65054,0.615373 -0.26373,0.386806 -0.47472,0.984598 l -0.0703,-1.072508 -0.28131,0.632955 v -1.406568 h -5.71418 z m 16.63265,-9.79323 h 0.43956 q 0.31647,0 0.54504,0 0.22857,0 0.54505,0.03516 v 0.123075 l -0.17582,5.977914 v 0.791194 q 0,0.105493 0.0352,0.228568 0.0352,0.123074 0.0703,0.210985 0.1934,0.545045 0.65054,0.791194 0.47471,0.228568 1.01976,0.228568 0.33406,0 0.65053,-0.105493 0.33406,-0.105493 0.58021,-0.298896 0.24615,-0.210985 0.38681,-0.492298 0.15824,-0.298896 0.17582,-0.66812 l 0.1934,-6.259228 4.65926,0.158239 -0.21098,6.593288 q -0.0176,0.773612 -0.33406,1.301075 -0.2989,0.509881 -0.80878,0.861523 -0.4923,0.33406 -1.12526,0.527463 -0.63295,0.193403 -1.30107,0.316478 -0.94943,0.158239 -1.88129,0.228567 -0.93185,0.05275 -1.88128,0.05275 -0.79119,0 -1.56481,-0.05275 -0.75603,-0.05275 -1.51206,-0.210985 -0.6857,-0.123075 -1.26591,-0.369224 -0.58021,-0.263732 -1.00218,-0.66812 -0.42197,-0.404388 -0.66812,-0.967016 -0.22857,-0.562627 -0.24615,-1.301075 l -0.21098,-6.909765 z m 10.56685,3.903226 q 0,-1.09009 0.31648,-1.986777 0.31648,-0.914269 0.89669,-1.617553 0.58021,-0.720866 1.38898,-1.248329 0.82636,-0.527463 1.84613,-0.843941 1.16041,-0.369224 2.356,-0.439553 1.21316,-0.07033 2.40874,-0.07033 h 0.68571 l 2.8483,0.175821 2.53182,0.386806 0.15824,5.116391 h -1.09009 q -0.0176,0.01758 -0.0176,0.05275 v 0.08791 q -0.0176,0.05275 -0.0352,0.175821 -0.0176,0.123075 -0.0352,0.263731 0,0.140657 -0.0176,0.263732 -0.0176,0.123075 -0.0176,0.175821 l -0.0352,0.07033 h -0.0176 l -3.62192,-0.492298 q -0.0176,0 -0.14065,0 -0.1055,-0.01758 -0.24615,-0.01758 -0.14066,-0.01758 -0.28132,-0.01758 -0.14065,-0.01758 -0.21098,-0.01758 h -0.22857 q -0.12307,0 -0.35164,0.01758 -0.22857,0 -0.47472,0.03517 -0.24615,0.01758 -0.47471,0.08791 -0.21099,0.07033 -0.28132,0.193403 -0.0879,0.140657 -0.10549,0.298896 -0.0176,0.140657 -0.0176,0.33406 0,0.369224 0.17582,0.562627 0.1934,0.193403 0.47472,0.281314 0.28131,0.07033 0.59779,0.07033 0.33406,0 0.61537,0 h 0.45713 l 2.58457,-0.298896 2.19777,-0.474716 -0.40439,4.94057 -2.98896,0.492298 -2.32084,0.158239 h -0.50988 q -0.63295,0 -1.19558,-0.01758 -0.54505,-0.03516 -1.09009,-0.08791 -0.52746,-0.05275 -1.07251,-0.140657 -0.54504,-0.105493 -1.14283,-0.246149 -0.40439,-0.08791 -0.80878,-0.263732 -0.38681,-0.193403 -0.73845,-0.404388 -0.73845,-0.457135 -1.23075,-1.072508 -0.4923,-0.615374 -0.79119,-1.33624 -0.2989,-0.738448 -0.42197,-1.529643 -0.12308,-0.808776 -0.12308,-1.617553 z m 0.38681,0.33406 q 0,2.51424 1.24833,4.096629 1.24833,1.582389 3.81531,1.951613 0.0879,0 0.24615,0.01758 0.17583,0.01758 0.33406,0.03516 0.17583,0.01758 0.2989,0.03516 0.12307,0.01758 0.15824,0.01758 h 2.09227 l 2.51424,-0.210985 2.90105,-0.545045 0.0527,-0.05275 0.1934,-3.815315 -2.356,0.474716 -2.03952,0.263732 h -1.23075 q -0.1934,0 -0.40439,-0.05275 -0.1934,-0.07033 -0.35164,-0.123075 -0.4923,-0.193403 -0.72086,-0.597791 -0.22857,-0.404389 -0.22857,-0.931852 0,-0.650537 0.26373,-1.002179 0.26373,-0.369225 0.6857,-0.545046 0.43955,-0.175821 0.96702,-0.210985 0.54504,-0.05275 1.07251,-0.05275 h 0.47471 l 2.86588,0.263731 v 0.123075 h 1.0901 l 0.12307,-1.054926 -0.0176,-0.03516 h -0.0528 q -0.0176,0 -0.0352,-0.01758 v -3.199942 l -2.1626,-0.369224 -2.97138,-0.228568 h -2.39116 q -0.0352,0 -0.17582,0.01758 -0.14066,0 -0.33406,0.01758 -0.17582,0.01758 -0.36923,0.05275 -0.17582,0.01758 -0.28131,0.03516 -0.0528,0.01758 -0.15824,0.03516 -0.10549,0.01758 -0.22857,0.05275 -0.12307,0.01758 -0.24615,0.05275 -0.10549,0.01758 -0.14065,0.01758 -2.14502,0.545045 -3.32302,1.881285 -1.178,1.336239 -1.178,3.60433 z m 0.42197,0.246149 q 0,-1.916448 0.91427,-3.18236 0.91427,-1.265911 2.79555,-1.775792 0.0528,-0.01758 0.17582,-0.03516 0.12308,-0.03516 0.24615,-0.05275 0.14066,-0.03516 0.24615,-0.05275 0.1055,-0.03516 0.14066,-0.03516 0.0879,-0.01758 0.26373,-0.03516 0.17582,-0.03516 0.35164,-0.05275 0.19341,-0.01758 0.33406,-0.03516 0.15824,-0.01758 0.19341,-0.01758 h 1.61755 l 3.16478,0.263732 1.98677,0.33406 q 0,0.01758 0.0176,0.01758 0.0176,0 0.0176,0.01758 0,0 0.0176,0 0.0176,0.01758 0.0528,0.01758 v 0.105493 q 0,0.123074 -0.0176,0.439552 -0.0176,0.316478 -0.0352,0.66812 0,0.33406 -0.0176,0.650538 -0.0176,0.316478 -0.0176,0.439552 h -0.0879 l -2.63732,-0.158239 h -0.24615 q -0.73845,0 -1.49448,0.08791 -0.73844,0.07033 -1.35382,0.351642 -0.59779,0.281313 -0.9846,0.826359 -0.36922,0.527463 -0.36922,1.42415 0,0.685702 0.21099,1.178 0.22856,0.492299 0.61537,0.808777 0.40439,0.298896 0.93185,0.439552 0.54505,0.140657 1.178,0.140657 h 0.36923 l 1.42415,-0.158239 2.0571,-0.42197 0.73845,-0.193403 h 0.0176 v 1.42415 q 0,0.140657 -0.0176,0.369224 0,0.228567 0,0.439553 v 0.527463 l -0.0352,0.03516 -2.42632,0.527463 q -0.0528,0.01758 -0.35165,0.05275 -0.29889,0.03516 -0.6857,0.08791 -0.36922,0.05275 -0.73845,0.105492 -0.36922,0.03516 -0.58021,0.05275 -0.50988,0.03516 -1.01976,0.05275 -0.4923,0.01758 -1.00218,0.01758 -0.42197,0 -0.8791,-0.01758 -0.43956,-0.01758 -0.87911,-0.105493 -2.19776,-0.509881 -3.19994,-1.934031 -1.00218,-1.42415 -1.00218,-3.639495 z m 16.93157,-8.580064 v -1.090091 l 7.17349,0.175821 v 0.756031 q 0,0.738448 -0.0176,1.476896 0,0.720866 -0.0352,1.459314 0,0.05275 -0.0176,0.24615 -0.0176,0.175821 -0.0352,0.386806 -0.0176,0.210985 -0.0352,0.404388 -0.0176,0.175821 -0.0176,0.228568 v 0.140656 l 0.0176,-0.03516 q 0.0176,0 0.10549,-0.140657 0.0879,-0.140656 0.1934,-0.316477 0.1055,-0.175821 0.21099,-0.369224 0.12307,-0.193404 0.1934,-0.298896 0.0176,-0.05275 0.0879,-0.175821 0.0879,-0.140657 0.15824,-0.298896 0.0879,-0.158239 0.15824,-0.298896 0.0703,-0.140656 0.10549,-0.193403 l 0.0352,-0.01758 h 1.14283 l 7.56031,0.175821 -4.85266,6.171317 v 0.03517 q 0,0.05275 0.0527,0.123074 l 3.51642,5.432869 -7.15591,0.175821 h -0.0528 q -0.0352,0 -0.0527,-0.01758 l -1.68789,-2.531822 v 0.210985 q 0,0.474717 0.0176,0.949433 0.0352,0.474717 0.0352,0.931852 v 0.668119 l -6.04824,0.158239 h -1.49448 l -0.36923,-14.522814 z m 0,13.801948 h 6.25922 v -3.85048 h 0.0352 l 0.0528,0.05275 2.28567,3.797733 h 6.73394 l -3.51642,-5.36254 v -0.01758 q 0,-0.05275 0.0176,-0.07033 l 4.29004,-5.714182 h -7.48998 l -2.356,4.571346 q -0.0176,0.03516 -0.0176,0.03516 0,-0.01758 -0.0352,-0.01758 v -7.208661 h -6.25922 z m 6.1889,-4.342779 h -0.0352 q -0.0527,0 -0.0527,0.01758 l -0.33406,1.916448 q 0,0.08791 -0.0176,0.316478 -0.0176,0.228568 -0.0352,0.492299 0,0.246149 -0.0176,0.474717 -0.0176,0.228567 -0.0352,0.316478 0,0.03516 -0.0176,0.07033 0,0.01758 0,0.05275 v 0.08791 h -0.10549 l -4.78233,-0.123075 0.31648,-11.97341 0.22856,-0.03516 q 0.77362,-0.01758 1.49448,-0.03516 0.61537,-0.01758 1.26591,-0.03516 0.66812,-0.01758 1.10767,-0.03516 h 0.14066 v 0.05275 q 0,0.03517 0,0.05275 0.0176,0.01758 0.0176,0.03516 l 0.0527,1.705464 0.66812,5.133973 0.0352,0.05275 h 0.0176 l 0.0527,-0.05275 2.77797,-4.430689 q 0.0352,-0.105493 0.0703,-0.175821 0.0352,-0.08791 0.15824,-0.08791 l 6.11857,-0.175821 -3.76257,5.309794 3.46368,5.204302 -6.10099,-0.175821 -0.0352,-0.03516 q -0.0176,-0.03516 -0.0879,-0.140657 -0.0703,-0.123075 -0.0879,-0.158239 z"
       id="path3"
       transform="scale(0.80258149,1.2459794)"
       aria-label="Linoldruck" />
  </g>
</svg>
